<svg clip-rule="evenodd" fill-rule="evenodd" height="512" image-rendering="optimizeQuality" shape-rendering="geometricPrecision" text-rendering="geometricPrecision" viewBox="0 0 512 512" width="512" xmlns="http://www.w3.org/2000/svg"><g id="Layer_x0020_1"><g id="_578248864"><path d="m397 506h-390c-4 0-7-4-7-8v-484c0-4 3-8 7-8h390c4 0 8 4 8 8v484c-1 4-4 8-8 8z" fill="#fff2b7"/><path d="m397 331c-4 0-8-4-8-8v-40c0-4 4-7 8-7s7 3 7 7v40c0 4-3 8-7 8z" fill="#565e72"/><path d="m397 291c-64 0-116-52-116-116s52-115 116-115 115 51 115 115-51 116-115 116z" fill="#52658c"/><path d="m426 459h-58c-4 0-7-3-7-8v-128c0-4 3-7 7-7h58c4 0 7 3 7 7v128c0 5-3 8-7 8z" fill="#ff4500"/><path d="m397 260c-47 0-85-38-85-85 0-46 38-85 85-85 46 0 84 38 84 85 0 46-38 85-84 85z" fill="#b1e2fa"/><g fill="#e3c89a"><path d="m295 58h-186c-4 0-8-4-8-8s4-7 8-7h186c4 0 7 3 7 7s-3 8-7 8z"/><path d="m289 102h-125c-4 0-8-3-8-7s4-8 8-8h124c5 0 8 4 8 8s-3 7-7 7z"/><path d="m108 102h-48c-4 0-8-3-8-7s4-8 8-8h49c4 0 7 4 7 8s-4 7-8 7z"/><path d="m257 142h-93c-4 0-8-3-8-8 0-4 4-7 8-7h93c4 0 8 3 8 7 0 5-4 8-8 8z"/><path d="m108 142h-48c-4 0-8-3-8-8 0-4 4-7 8-7h49c4 0 7 3 7 7 0 5-4 8-8 8z"/></g><path d="m96 469h-42c-5 0-8-3-8-7v-134c0-4 3-7 8-7h42c4 0 8 3 8 7v134c0 4-4 7-8 7z" fill="#ffd300"/><path d="m182 469h-43c-4 0-8-3-8-7v-181c0-4 4-7 8-7h42c5 0 8 3 8 7v181c0 4-3 7-7 7z" fill="#00a859"/><path d="m267 469h-43c-4 0-7-3-7-7v-110c0-4 3-8 7-8h43c4 0 7 4 7 8v110c0 4-3 7-7 7z" fill="#ed3237"/><path d="m283 474h-246c-4 0-7-3-7-7s3-8 7-8h246c5 0 8 4 8 8s-3 7-8 7z" fill="#89b0c3"/><path d="m90 273c-3 0-5-1-6-4-3-3-1-8 2-10l57-29c3-2 8-1 10 3 2 3 0 8-3 10l-56 29c-2 1-3 1-4 1zm141-6c-1 0-2 0-3 0l-56-25c-3-2-5-6-3-10 1-3 5-5 9-3l56 24c4 2 5 6 4 10-2 3-4 4-7 4z" fill="#89b0c3"/><path d="m75 297c-13 0-24-11-24-24 0-12 11-23 24-23s24 11 24 23c0 13-11 24-24 24z" fill="#55acee"/><path d="m161 252c-14 0-24-10-24-23s11-24 24-24 23 11 23 24-10 23-23 23z" fill="#55acee"/><path d="m246 290c-13 0-24-11-24-24s11-23 24-23 23 11 23 23c1 14-10 24-23 24z" fill="#55acee"/><path d="m257 181h-93c-4 0-8-4-8-8s4-7 8-7h93c4 0 8 3 8 7s-4 8-8 8z" fill="#e3c89a"/><path d="m108 181h-48c-4 0-8-4-8-8s4-7 8-7h49c4 0 7 3 7 7s-4 8-8 8z" fill="#e3c89a"/></g></g></svg>