<svg height="511pt" viewBox="1 -25 511.99861 511" width="511pt" xmlns="http://www.w3.org/2000/svg"><path d="m209.792969 290.460938c25.984375-23.960938 27.621093-64.449219 3.660156-90.433594-23.964844-25.984375-64.453125-27.621094-90.4375-3.660156-25.984375 23.964843-27.621094 64.453124-3.660156 90.4375 1.171875 1.269531 2.390625 2.488281 3.660156 3.65625-28.164063 13.488281-46.125 41.910156-46.214844 73.136718v8.101563c0 7.070312 5.730469 12.800781 12.800781 12.800781h153.597657c7.070312 0 12.800781-5.730469 12.800781-12.800781v-8.101563c-.089844-31.226562-18.046875-59.644531-46.207031-73.136718zm-43.394531-85.164063c21.207031 0 38.402343 17.195313 38.402343 38.402344s-17.195312 38.398437-38.402343 38.398437c-21.207032 0-38.398438-17.191406-38.398438-38.398437.023438-21.199219 17.203125-38.375 38.398438-38.402344zm-63.800782 153.601563c2.480469-28.929688 26.667969-51.164063 55.703125-51.199219h16.199219c29.035156.035156 53.222656 22.269531 55.699219 51.199219zm0 0"/><path d="m499.199219 77.296875h-140.800781v-12.796875c0-7.070312-5.730469-12.800781-12.800782-12.800781h-38.398437c0-28.277344-22.921875-51.199219-51.199219-51.199219s-51.199219 22.921875-51.199219 51.199219h-38.402343c-7.070313 0-12.800782 5.730469-12.800782 12.800781v12.796875h-140.796875c-7.070312 0-12.800781 5.730469-12.800781 12.800781v358.398438c0 7.070312 5.730469 12.800781 12.800781 12.800781h486.398438c7.070312 0 12.800781-5.730469 12.800781-12.800781v-358.398438c0-7.070312-5.730469-12.800781-12.800781-12.800781zm-320 0h40.75c7.070312.007813 12.804687-5.71875 12.8125-12.789063 0-1.460937-.246094-2.910156-.734375-4.285156-1.035156-2.726562-1.585938-5.609375-1.628906-8.523437 0-14.140625 11.460937-25.601563 25.601562-25.601563s25.601562 11.460938 25.601562 25.601563c-.042968 2.914062-.59375 5.800781-1.628906 8.523437-2.359375 6.664063 1.128906 13.980469 7.789063 16.339844 1.378906.488281 2.828125.738281 4.289062.734375h40.75v25.601563h-153.601562zm307.199219 358.402344h-460.796876v-332.800781h128v12.800781c0 7.070312 5.730469 12.800781 12.800782 12.800781h179.199218c7.070313 0 12.800782-5.730469 12.800782-12.800781v-12.800781h128v332.800781zm0 0"/><path d="m294.398438 192.5c-7.066407 0-12.796876 5.730469-12.796876 12.796875 0 7.070313 5.730469 12.800781 12.796876 12.800781h128c7.070312 0 12.800781-5.730468 12.800781-12.800781 0-7.066406-5.730469-12.796875-12.800781-12.796875zm0 0"/><path d="m422.398438 269.296875h-128c-7.066407 0-12.796876 5.730469-12.796876 12.800781 0 7.070313 5.730469 12.800782 12.796876 12.800782h128c7.070312 0 12.800781-5.730469 12.800781-12.800782 0-7.070312-5.730469-12.800781-12.800781-12.800781zm0 0"/><path d="m422.398438 346.097656h-102.398438c-7.070312 0-12.800781 5.730469-12.800781 12.800782 0 7.070312 5.730469 12.800781 12.800781 12.800781h102.398438c7.070312 0 12.800781-5.730469 12.800781-12.800781 0-7.070313-5.730469-12.800782-12.800781-12.800782zm0 0"/></svg>