<svg clip-rule="evenodd" fill-rule="evenodd" height="512" image-rendering="optimizeQuality" shape-rendering="geometricPrecision" text-rendering="geometricPrecision" viewBox="0 0 43.3492 43.3492" width="512" xmlns="http://www.w3.org/2000/svg"><g id="Layer_x0020_1"><g id="_556446944"><path id="_556447448" d="m26.7419 29.4762c-.1411 0-.2468-.0352-.3526-.141l-2.6093-2.6447c-.509-.5124 2.4882-3.3329 2.8915-2.8915l2.6093 2.6093c.2037.2038.1696.4983 0 .7052l-2.1862 2.1862c-.0705.106-.2116.1765-.3527.1765z" fill="#545454"/><path id="_556447688" d="m15.0352 30.0756c-3.8434 0-7.6869-1.4809-10.6135-4.4077-5.8886-5.8533-5.8886-15.3738-.0353-21.2623 5.8533-5.8534 15.3738-5.8534 21.2625 0 5.8533 5.8533 5.8533 15.3737 0 21.2625-2.9267 2.9266-6.7701 4.4075-10.6137 4.4075zm0-2.4683c-3.2088 0-6.4528-1.2341-8.8858-3.6671-4.9365-4.9013-4.9365-12.8703-.0353-17.8069 4.9367-4.9013 12.9057-4.9013 17.8069 0 4.9013 4.9012 4.9013 12.8702 0 17.7716-2.4682 2.4683-5.677 3.7024-8.8858 3.7024z" fill="#676767"/><path id="_556447592" d="m15.0352 27.6073c-3.2088 0-6.4528-1.2341-8.8858-3.6671-4.9365-4.9013-4.9365-12.8703-.0353-17.8069 4.9367-4.9013 12.9057-4.9013 17.8069 0 4.9013 4.9012 4.9013 12.8702 0 17.7716-2.4682 2.4683-5.677 3.7024-8.8858 3.7024z" fill="#70d1fe"/><path id="_556447256" d="m39.7533 43.3338c-.9521 0-1.8689-.3878-2.5388-1.0578l-11.8829-11.883c-.2038-.2037-.1696-.4982 0-.7051l4.3724-4.3724c.2115-.2116.5288-.2116.7053 0l11.8829 11.8829c2.2616 2.2617.648 6.1354-2.5389 6.1354z" fill="#f8991b"/><path id="_556447232" d="m35.9184 40.9799-2.2566-2.2567 5.0863-5.0689 2.2566 2.2566z" fill="#676767"/><path id="_556447928" d="m10.0265 10.0619c-2.8014 2.6779-2.7005 7.2143.0082 9.9225.6412.6411.1777 1.7486-.7118 1.7486-.6994 0-1.3862-.8849-1.7363-1.4067-.6284-.9366-1.0879-2.0594-1.3513-3.1532-.7663-3.182.0481-6.2152 2.3759-8.5428.2764-.2763.6594-.3873 1.0332-.2548.7012.2484.9401 1.1531.3821 1.6864z" fill="#e4eaf8"/></g></g></svg>