<svg id="Layer_1" enable-background="new 0 0 512 512" height="512" viewBox="0 0 512 512" width="512" xmlns="http://www.w3.org/2000/svg"><g><path d="m390.971 440.026c-5.086 2.771-10.243 5.631-15.465 8.526-44.189 24.5-94.274 52.27-142.411 47.971l-170.472-15.218c-.222-.02-.445-.03-.668-.03h-46.926v-84.363h46.925c1.777 0 3.497-.63 4.853-1.777.133-.112 13.562-11.395 34.006-22.015 3.683-1.913 5.117-6.45 3.205-10.133-1.914-3.682-6.449-5.118-10.133-3.204-17.238 8.955-29.743 18.28-34.589 22.1h-51.781c-4.15 0-7.515 3.365-7.515 7.515v99.392c0 4.15 3.364 7.515 7.515 7.515h54.104l170.139 15.189c3.843.343 7.677.507 11.512.507 48.792 0 96.803-26.618 139.523-50.303 5.19-2.877 10.315-5.719 15.369-8.474 3.644-1.986 4.989-6.55 3.003-10.194-1.985-3.646-6.548-4.99-10.194-3.004z"/><path d="m506.199 356.787c-7.99-10.591-21.911-14.249-33.926-9.219-.307-4.806-1.934-9.488-4.784-13.478-7.514-10.519-21.799-13.908-33.228-7.884l-17.872 9.419c-.229-4.197-1.467-8.327-3.674-11.974-7.13-11.787-22.197-15.88-34.302-9.319l-13.358 7.242c-.241-5.193-2-10.255-5.139-14.528-7.833-10.659-22.015-13.938-33.722-7.797l-96.438 50.58c-10.845-4.164-45.417-15.425-85.81-7.905-6.968 1.298-14.147 3.174-21.339 5.579-3.936 1.316-6.06 5.573-4.745 9.509 1.317 3.936 5.576 6.059 9.51 4.745 6.536-2.185 13.037-3.886 19.324-5.057 43.12-8.029 80.021 8.101 80.378 8.26.969.435 2.018.66 3.08.66h100.38c7.132 0 12.934 5.819 12.934 12.971 0 6.519-4.864 12.051-11.313 12.868l-127.225 16.114c-3.764.477-6.582 3.684-6.57 7.477.011 3.794 2.849 6.984 6.615 7.438l54.033 6.513c52.341 6.307 104.369-3.902 150.463-29.526l67.521-37.535c5.94-3.095 13.166-1.461 17.208 3.898 5.05 6.374 2.855 16.596-4.377 20.319l-72.447 39.48c-8.662 4.552-1.238 17.996 7.192 13.197l72.447-39.48c7.342-4 12.566-10.986 14.334-19.166 1.769-8.188-.108-16.717-5.15-23.401zm-173.024-44.229c5.078-2.663 11.23-1.239 14.631 3.388 4.178 5.388 2.281 13.935-3.793 17.036l-32.48 17.609h-50.871zm6.835 39.69 45.566-24.704c5.039-2.731 11.31-1.023 14.28 3.887 3.237 5.084 1.211 12.425-4.184 15.113l-39.522 20.83c-3.07-7.001-8.916-12.513-16.14-15.126zm62.159 34.091c-41.333 22.978-87.747 32.765-134.641 28.454l66.516-8.425c12.34-1.562 21.988-11.1 24.043-23.027l83.181-43.84c4.81-2.535 10.825-1.107 13.991 3.324 3.833 5.093 2.053 13.041-3.595 15.999z"/><path d="m174.991 204.184c8.487 0 16.652-1.836 24.266-5.457 3.748-1.782 5.342-6.266 3.559-10.014-1.782-3.747-6.263-5.342-10.014-3.559-5.581 2.654-11.574 4-17.811 4-22.901 0-41.533-18.632-41.533-41.533s18.632-41.532 41.533-41.532 41.533 18.631 41.533 41.532c0 7.012-1.778 13.939-5.141 20.033-2.005 3.634-.686 8.205 2.948 10.21 3.635 2.005 8.206.685 10.21-2.948 4.587-8.312 7.012-17.75 7.012-27.296 0-31.189-25.374-56.562-56.562-56.562s-56.562 25.373-56.562 56.562 25.374 56.564 56.562 56.564z"/><path d="m57.647 169.964 15.575 2.341c2.543 10.551 6.684 20.545 12.358 29.819l-9.363 12.675c-4.424 5.99-3.813 14.158 1.453 19.422l10.722 10.723c5.265 5.265 13.434 5.876 19.423 1.452l12.674-9.362c9.274 5.674 19.267 9.816 29.819 12.359l2.342 15.575c1.107 7.363 7.315 12.707 14.76 12.707h15.163c7.446 0 13.654-5.344 14.76-12.708l2.341-15.574c10.552-2.543 20.545-6.685 29.819-12.359l12.675 9.363c5.989 4.423 14.158 3.813 19.422-1.452l10.722-10.722c5.266-5.264 5.877-13.433 1.453-19.423l-9.362-12.674c5.674-9.274 9.816-19.267 12.358-29.819l15.574-2.341c7.363-1.107 12.708-7.314 12.708-14.761v-.068h44.596v95.782c0 9.663 7.862 17.525 17.525 17.525h32.104c3.437 15.318 17.137 26.801 33.477 26.801 18.922 0 34.317-15.394 34.317-34.317 0-18.922-15.394-34.317-34.317-34.317-16.341 0-30.041 11.484-33.478 26.803h-32.104c-1.376 0-2.495-1.119-2.495-2.495v-95.782h34.599c3.437 15.319 17.137 26.803 33.478 26.803 18.922 0 34.317-15.394 34.317-34.317s-15.394-34.317-34.317-34.317c-16.34 0-30.04 11.483-33.478 26.801h-34.597v-95.78c0-1.376 1.119-2.495 2.495-2.495h32.104c3.437 15.319 17.137 26.802 33.478 26.802 18.922 0 34.317-15.394 34.317-34.317s-15.396-34.317-34.318-34.317c-16.34 0-30.04 11.483-33.478 26.802h-32.104c-9.663 0-17.525 7.861-17.525 17.524v95.78h-44.596v-.066c0-7.445-5.344-13.653-12.707-14.76l-15.575-2.341c-2.543-10.552-6.684-20.545-12.358-29.819l9.362-12.674c4.424-5.99 3.814-14.159-1.452-19.423l-10.722-10.723c-5.264-5.265-13.433-5.875-19.423-1.452l-12.674 9.362c-9.275-5.674-19.268-9.816-29.819-12.358l-2.341-15.575c-1.106-7.363-7.314-12.708-14.76-12.708h-15.164c-7.445 0-13.653 5.344-14.76 12.708l-2.342 15.575c-10.551 2.543-20.544 6.684-29.819 12.358l-12.674-9.362c-5.988-4.424-14.158-3.814-19.423 1.452l-10.722 10.721c-5.266 5.265-5.877 13.434-1.453 19.423l9.362 12.674c-5.674 9.274-9.816 19.268-12.358 29.819l-15.575 2.341c-7.363 1.107-12.707 7.315-12.707 14.76v15.163c0 7.449 5.345 13.656 12.708 14.763zm375.099 71.675c10.635 0 19.287 8.652 19.287 19.287s-8.652 19.287-19.287 19.287-19.287-8.652-19.287-19.287 8.652-19.287 19.287-19.287zm0-113.305c10.635 0 19.287 8.652 19.287 19.287s-8.652 19.287-19.287 19.287-19.287-8.652-19.287-19.287 8.652-19.287 19.287-19.287zm0-113.305c10.635 0 19.287 8.652 19.287 19.287s-8.652 19.287-19.287 19.287-19.287-8.652-19.287-19.287c0-10.634 8.652-19.287 19.287-19.287zm-372.778 125.099 20.627-3.101c3.164-.475 5.68-2.902 6.269-6.046 2.29-12.213 7.018-23.62 14.05-33.905 1.805-2.64 1.742-6.134-.159-8.707l-12.396-16.783 10.597-10.596 16.783 12.397c2.572 1.9 6.065 1.964 8.706.159 10.286-7.033 21.693-11.76 33.905-14.051 3.144-.589 5.57-3.105 6.046-6.269l3.101-20.627h14.986l3.101 20.627c.476 3.164 2.902 5.68 6.046 6.269 12.212 2.29 23.62 7.018 33.905 14.051 2.641 1.806 6.134 1.741 8.707-.159l16.783-12.397 10.597 10.596-12.396 16.784c-1.9 2.572-1.964 6.066-.159 8.707 7.033 10.285 11.76 21.692 14.051 33.906.59 3.144 3.106 5.57 6.269 6.046l20.627 3.101v14.986l-20.627 3.101c-3.163.475-5.679 2.902-6.269 6.046-2.291 12.214-7.018 23.621-14.051 33.906-1.805 2.64-1.742 6.134.159 8.706l12.397 16.783-10.597 10.597-16.783-12.397c-2.572-1.9-6.066-1.964-8.707-.158-10.285 7.033-21.692 11.76-33.906 14.051-3.144.59-5.57 3.106-6.046 6.269l-3.101 20.627h-14.986l-3.101-20.627c-.476-3.163-2.902-5.679-6.046-6.269-12.214-2.291-23.621-7.018-33.906-14.051-2.64-1.805-6.133-1.742-8.706.158l-16.783 12.397-10.597-10.597 12.397-16.783c1.9-2.572 1.964-6.067.159-8.706-7.033-10.285-11.76-21.692-14.05-33.905-.59-3.144-3.105-5.571-6.269-6.046l-20.627-3.101z"/></g></svg>