<svg id="Capa_1" enable-background="new 0 0 512 512" height="512" viewBox="0 0 512 512" width="512" xmlns="http://www.w3.org/2000/svg"><g><path d="m172.5 437c-20.678 0-37.5 16.822-37.5 37.5s16.822 37.5 37.5 37.5 37.5-16.822 37.5-37.5-16.822-37.5-37.5-37.5zm0 60c-12.406 0-22.5-10.094-22.5-22.5s10.094-22.5 22.5-22.5 22.5 10.094 22.5 22.5-10.094 22.5-22.5 22.5z"/><circle cx="172.5" cy="474.5" r="7.5"/><circle cx="429.5" cy="474.5" r="7.5"/><path d="m429.5 437c-20.678 0-37.5 16.822-37.5 37.5s16.822 37.5 37.5 37.5 37.5-16.822 37.5-37.5-16.822-37.5-37.5-37.5zm0 60c-12.406 0-22.5-10.094-22.5-22.5s10.094-22.5 22.5-22.5 22.5 10.094 22.5 22.5-10.094 22.5-22.5 22.5z"/><path d="m123.846 362.954 54.592-30.954h122.562c18.109 0 33.262-12.904 36.747-30h78.11c24.002 0 44.917-16.24 50.863-39.493l45.046-176.148c.573-2.245.078-4.628-1.343-6.458s-3.607-2.901-5.923-2.901h-368.238l-3.825-14.955c-9.33-36.531-42.201-62.045-79.937-62.045h-30c-12.406 0-22.5 10.094-22.5 22.5s10.094 22.5 22.5 22.5h30c17.157 0 32.099 11.59 36.338 28.187l57.604 225.225-44.78 25.39c-16.445 9.31-26.662 26.821-26.662 45.698 0 28.948 23.552 52.5 52.5 52.5h332c12.406 0 22.5-10.094 22.5-22.5s-10.094-22.5-22.5-22.5h-332c-4.136 0-7.5-3.364-7.5-7.5 0-2.695 1.472-5.202 3.846-6.546zm277.997-145.954h-46.089l2.812-55h51.715zm23.613-55h51.484l-14.065 55h-45.857zm-25.915 70-8.438 55h-38.928l2.812-55zm-58.807-15h-46.167l-2.814-55h51.793zm18.599-70 2.812-55h58.875l-8.438 55zm-15.02 0h-53.328l-2.814-55h58.954zm-68.347 0h-29.687c-4.143 0-7.5 3.357-7.5 7.5s3.357 7.5 7.5 7.5h30.454l2.814 55h-46.088l-19.183-125h58.875zm-57.682 70h-46.216l-14.067-55h51.842zm2.302 15 8.441 55h-39.055l-14.067-55zm23.616 55-8.441-55h44.554l2.814 55zm53.947 0-2.814-55h44.632l-2.812 55zm154.039-28.209c-4.247 16.608-19.187 28.209-36.331 28.209h-9.579l8.438-55h44.322zm28.588-111.791h-53.018l8.438-55h58.645zm-281.675-55 8.441 55h-53.376l-14.067-55zm-146.601-62h-30c-4.136 0-7.5-3.364-7.5-7.5s3.364-7.5 7.5-7.5h30c15.765 0 30.484 5.451 42.138 14.754l-10.693 10.694c-8.843-6.607-19.775-10.448-31.445-10.448zm75 362h332c4.136 0 7.5 3.364 7.5 7.5s-3.364 7.5-7.5 7.5h-332c-20.678 0-37.5-16.822-37.5-37.5 0-13.483 7.301-25.992 19.057-32.648l49.771-28.22c2.944-1.67 4.405-5.104 3.566-8.383l-59.024-230.776c-1.743-6.826-4.786-13.04-8.813-18.422l10.696-10.696c5.837 7.302 10.223 15.894 12.651 25.404l58.979 230.6c.849 3.319 3.839 5.642 7.266 5.642h138.066c-3.096 8.73-11.437 15-21.215 15h-124.54c-1.297 0-2.571.336-3.699.976l-56.309 31.927c-7.063 3.996-11.452 11.506-11.452 19.596 0 12.406 10.094 22.5 22.5 22.5z"/></g></svg>