<svg id="Layer_1" enable-background="new 0 0 512 512" height="512" viewBox="0 0 512 512" width="512" xmlns="http://www.w3.org/2000/svg"><g><g><circle cx="227.6" cy="264.9" fill="#5ac8ae" r="218.4"/><path d="m227.6 443.7c-113.9 0-207.4-87.3-217.4-198.6-.6 6.5-.9 13.1-.9 19.8 0 120.6 97.8 218.4 218.4 218.4s218.4-97.8 218.4-218.4c0-6.7-.3-13.2-.9-19.8-10.1 111.3-103.6 198.6-217.6 198.6z" fill="#52afa8"/><path d="m453.3 264.8c0-64.9-27.5-123.4-71.5-164.6v-.4h-.4c-40.3-37.5-94.4-60.6-153.8-60.6s-113.4 23.1-153.7 60.7h-.4v.4c-44 41.2-71.5 99.7-71.5 164.5 0 64.9 27.5 123.4 71.5 164.6v.4h.4c40.3 37.6 94.4 60.7 153.7 60.7s113.4-23.1 153.7-60.7h.4v-.4c44-41.2 71.6-99.7 71.6-164.6zm-77.7 150.4h-22.5c9.7-14.6 18.1-30.9 24.8-48.5h34.5c-9.9 17.9-22.4 34.3-36.8 48.5zm-355.4-111.5h41.5c2.2 16.9 5.8 33.1 10.6 48.5h-36.7c-7-15.3-12.2-31.6-15.4-48.5zm-3.6-38.9c0-8.2.5-16.3 1.4-24.2h42.2c-.6 8-1 16-1 24.2s.3 16.3 1 24.2h-42.2c-.9-7.9-1.4-15.9-1.4-24.2zm418.5-38.8h-41.5c-2.2-16.9-5.7-33.1-10.6-48.5h36.8c6.9 15.3 12.1 31.6 15.3 48.5zm3.6 38.8c0 8.2-.5 16.3-1.4 24.2h-42.2c.6-8 1-16.1 1-24.2 0-8.2-.3-16.3-1-24.2h42.2c.9 8 1.4 16 1.4 24.2zm-364.9 0c0-8.2.4-16.3 1-24.2h61.2c-.3 8-.5 16-.5 24.2s.2 16.3.5 24.2h-61.2c-.7-7.9-1-15.9-1-24.2zm76.3 0c0-8.3.2-16.3.5-24.2h69.8v48.5h-69.8c-.4-7.9-.5-16-.5-24.3zm231.4 0c0 8.2-.4 16.3-1 24.2h-61.2c.3-8 .5-16 .5-24.2s-.2-16.3-.5-24.2h61.2c.6 8 1 16 1 24.2zm-76.3 0c0 8.3-.2 16.3-.5 24.2h-69.8v-48.5h69.8c.3 8 .5 16.1.5 24.3zm-70.3-38.8v-48.5h63.3c2.6 15.1 4.5 31.3 5.7 48.5zm0-63v-48.5h46.5c5.4 14.1 10.2 30.3 14 48.5zm0-63.1v-45c14.2 4.1 28.4 19.9 40.3 45zm-14.5-45v45h-40.4c11.9-25.2 26.1-41 40.4-45zm0 59.6v48.5h-60.5c3.8-18.2 8.5-34.4 14-48.5zm0 63v48.5h-69c1.2-17.2 3.1-33.4 5.7-48.5zm0 126.2v48.5h-63.2c-2.6-15.1-4.5-31.3-5.7-48.5zm0 63v48.5h-46.5c-5.4-14.1-10.2-30.3-14-48.5zm0 63.1v45c-14.2-4.1-28.4-19.9-40.3-45zm14.5 45v-45h40.3c-11.8 25.2-26 41-40.3 45zm0-59.6v-48.5h60.5c-3.8 18.2-8.5 34.4-14 48.5zm0-63v-48.5h69c-1.2 17.2-3.1 33.4-5.7 48.5zm83.6-48.5h60.4c-2.3 17-6.1 33.2-11.2 48.5h-54.8c2.5-15.4 4.4-31.6 5.6-48.5zm75.1 0h41.5c-3.2 17-8.4 33.2-15.3 48.5h-36.8c4.8-15.4 8.4-31.7 10.6-48.5zm-14.7-77.7h-60.4c-1.2-16.9-3-33.2-5.6-48.5h54.8c5.1 15.3 8.9 31.6 11.2 48.5zm-68.7-63c-3.6-17.7-8-33.9-13.3-48.5h38.6c10.6 14.3 19.6 30.6 26.9 48.5zm-19.1-63.1c-6.8-15.6-14.6-28.7-23.1-38.7 20.5 7.7 39.3 21 55.5 38.7zm-126.9 0h-32.4c16.2-17.7 35-31 55.5-38.7-8.6 10-16.3 23.1-23.1 38.7zm-5.8 14.6c-5.3 14.5-9.7 30.8-13.3 48.5h-52.2c7.2-17.9 16.3-34.2 26.9-48.5zm-16 63c-2.6 15.3-4.4 31.6-5.6 48.5h-60.4c2.3-17 6.1-33.2 11.2-48.5zm-80.7 48.5h-41.5c3.2-17 8.4-33.2 15.3-48.5h36.8c-4.8 15.4-8.4 31.7-10.6 48.5zm14.7 77.7h60.4c1.2 16.9 3 33.2 5.6 48.5h-54.8c-5.1-15.3-8.9-31.6-11.2-48.5zm68.7 63c3.6 17.7 8 33.9 13.3 48.5h-38.6c-10.6-14.3-19.6-30.6-26.9-48.5zm19.1 63.1c6.8 15.6 14.6 28.7 23.1 38.7-20.5-7.7-39.3-21-55.5-38.7zm126.9 0h32.4c-16.2 17.7-35 31-55.5 38.7 8.5-10 16.3-23.1 23.1-38.7zm5.8-14.6c5.3-14.5 9.7-30.8 13.3-48.5h52.2c-7.2 17.9-16.3 34.2-26.9 48.5zm115.5-252.2h-34.5c-6.7-17.6-15-33.9-24.8-48.5h22.5c14.5 14.2 26.9 30.6 36.8 48.5zm-53.3-63.1h-16.7c-7.8-9.8-16.3-18.6-25.4-26.2 15.1 7.1 29.2 15.9 42.1 26.2zm-220.8-26.2c-9.1 7.7-17.6 16.4-25.4 26.2h-16.7c12.9-10.3 27-19.1 42.1-26.2zm-58.6 40.8h22.5c-9.7 14.6-18.1 30.9-24.8 48.5h-34.5c9.9-17.9 22.3-34.3 36.8-48.5zm-36.8 252.2h34.5c6.7 17.6 15 33.9 24.8 48.5h-22.5c-14.5-14.2-26.9-30.6-36.8-48.5zm53.3 63.1h16.7c7.8 9.8 16.3 18.6 25.4 26.2-15.1-7.1-29.2-15.9-42.1-26.2zm220.8 26.2c9.1-7.7 17.6-16.4 25.4-26.2h16.7c-12.9 10.3-27 19.1-42.1 26.2z" fill="#eff3f5"/></g><path d="m510 163.9-118.5 37.9 39.7 30.3-73 96.8-151.3-98-9.5-6.2-6.4 8.5-121.8 162.7 6.2 5 126.6-144.4 150.5 109.9 12.3 9 10.9-12.2 92.2-103.1 36.8 28.1z" fill="#f1786b"/><path d="m162.7 276.4c1.8 2.7 7.6 7.4 12.1 11.1l17.8-20.3c-6.7-2.9-13.1-6.3-18.9-10.9l-13.2 17.6c.8.7 1.5 1.5 2.2 2.5z" fill="#d45947"/><path d="m273.6 274c-3.2 7.2-7.6 14.7-14.3 18.9-1.7 1.1-3.1 1.7-4.6 2.1l29.4 21.4c6.4-7.8 12.9-15.4 19.3-23.1z" fill="#d45947"/><path d="m460.9 21.5-118.5 37.9 36.3 27.8-126.7 211.1-82.6-52.5-8.6-5.5-5 8.4-86.8 147.5 6.7 4.3 90.9-133 82.7 57.3 9.2 6.4 7.3-9.7 152.8-203.9 36.9 28.2z" fill="#41b3e2"/></g></svg>